<svg width="87" height="83" viewBox="0 0 87 83" fill="none" xmlns="http://www.w3.org/2000/svg">
<path d="M13.7785 57.3831L44.5199 72.8414C44.5199 72.8414 49.5085 67.1767 50.7211 61.3963C53.1999 49.5577 57.8347 30.5767 63.0979 24.8463C63.6403 24.255 69.0105 19.3651 69.0105 19.3651C69.0105 19.3651 65.1267 15.8261 63.3486 15.3153C55.9924 13.1949 34.2324 14.5499 34.2324 14.5499C34.2324 14.5499 27.2891 22.4701 26.3476 25.0273C24.5364 29.9488 21.5005 41.8367 19.6499 49.3163C18.7053 53.1364 13.7771 57.3883 13.7771 57.3883L13.7785 57.3831Z" fill="white"/>
<path d="M23.454 47.0585L45.9944 54.9754L46.6183 51.8844L23.7768 44.8069L23.454 47.0585Z" fill="#9FC4C3"/>
<path d="M25.2426 40.8664L47.9187 48.125L48.5777 44.8449L25.5654 38.6147L25.2426 40.8664Z" fill="#9FC4C3"/>
<path d="M26.2244 35.5648L50.1571 40.3854L50.8194 37.1035L26.9185 32.9234L26.2244 35.5648Z" fill="#9FC4C3"/>
<path d="M27.5306 29.6658L52.2011 33.2808L53.8012 30.3434L28.3492 27.4172L27.5306 29.6658Z" fill="#9FC4C3"/>
<path d="M29.6321 24.4487L55.9848 26.098L57.8241 23.7393L31.0197 22.4301L29.6321 24.4487Z" fill="#9FC4C3"/>
<path opacity="0.2" d="M69.0099 19.3652C69.0099 19.3652 65.1262 15.8262 63.348 15.3155C63.8375 15.968 63.0973 24.8465 63.0973 24.8465C63.6397 24.2552 69.0099 19.3652 69.0099 19.3652Z" fill="#939598"/>
</svg>
