<svg width="10" height="12" viewBox="0 0 10 12" fill="none" xmlns="http://www.w3.org/2000/svg">
<path d="M5.11133 0.646484C5.54492 0.646484 5.83789 0.945312 5.83789 1.39062L5.83789 8.33398L5.79102 9.60547L7.17969 8.03516L8.49805 6.72266C8.63281 6.59375 8.80859 6.50586 9.01953 6.50586C9.41797 6.50586 9.7168 6.79883 9.7168 7.20898C9.7168 7.40234 9.64063 7.58398 9.48828 7.73633L5.65039 11.5801C5.50977 11.7266 5.31055 11.8086 5.11133 11.8086C4.91211 11.8086 4.70703 11.7266 4.56641 11.5801L0.728516 7.73633C0.576172 7.58398 0.5 7.40234 0.500001 7.20898C0.500001 6.79883 0.798829 6.50586 1.19727 6.50586C1.4082 6.50586 1.58398 6.59375 1.71875 6.72266L3.04297 8.03516L4.43164 9.60547L4.37891 8.33398L4.37891 1.39062C4.37891 0.945312 4.67774 0.646484 5.11133 0.646484Z" fill="#D13133"/>
</svg>
