<svg width="19" height="18" viewBox="0 0 19 18" fill="none" xmlns="http://www.w3.org/2000/svg">
<path fill-rule="evenodd" clip-rule="evenodd" d="M2.60644 7.70669e-07L11.4219 0C13.2065 -1.56021e-07 14.0283 0.888183 14.0283 2.62305V2.70605L6.62402 2.70606C4.25 2.70606 3.01318 3.93457 3.01318 6.29199L3.01318 13.4224H2.60645C0.863281 13.4224 0 12.5674 0 10.8491V2.57324C0 0.854982 0.86328 9.23061e-07 2.60644 7.70669e-07ZM18.2902 16.5138C18.876 15.928 18.876 14.9852 18.876 13.0996V7.83337C18.876 5.94775 18.876 5.00494 18.2902 4.41916C17.7044 3.83337 16.7616 3.83337 14.876 3.83337L8.13306 3.83337C6.24744 3.83337 5.30463 3.83337 4.71884 4.41916C4.13306 5.00495 4.13306 5.94776 4.13306 7.83337L4.13306 13.0996C4.13306 14.9852 4.13306 15.928 4.71884 16.5138C5.30463 17.0996 6.24744 17.0996 8.13306 17.0996H14.876C16.7616 17.0996 17.7044 17.0996 18.2902 16.5138Z" fill="#51B3F6"/>
</svg>
