<svg width="25" height="26" viewBox="0 0 25 26" fill="none" xmlns="http://www.w3.org/2000/svg">
<path fill-rule="evenodd" clip-rule="evenodd" d="M6.56592 14.4044L9.45212 15.7307C10.2816 16.1493 12.024 17.1597 12.2954 16.1938C12.354 15.9842 12.1805 12.8325 12.1708 12.3816L12.324 8.66931C12.4679 8.96979 12.6266 9.10297 12.8315 9.33629L14.3663 11.3184C15.0869 12.2927 16.967 15.8565 17.4411 13.1C17.7013 11.5878 18.0298 10.4616 18.5242 9.04773C18.6376 8.72293 18.7658 8.55616 18.7699 8.19386C19.0818 8.33096 18.9205 8.22496 19.1179 8.62347C19.2447 8.87979 19.2671 8.94417 19.378 9.19081L21.0218 12.8302C21.3018 13.4637 22.8659 17.2741 23.0224 17.9824C22.7539 18.1215 22.5092 18.4232 22.3032 18.6121C21.7203 19.1461 20.3613 20.0567 19.6858 20.4414C17.0684 21.9316 14.8217 22.2637 11.8656 22.9171C11.0201 23.104 10.3595 23.0602 9.6531 23.2163C9.49655 22.8893 9.32375 22.627 9.16618 22.2729C9.0052 21.9101 8.88484 21.6444 8.72109 21.2645C7.69829 18.8896 7.50542 17.8799 6.91873 15.5575C6.80061 15.0895 6.68896 14.9611 6.56592 14.4044ZM11.11 15.2039C10.7077 15.0468 10.4325 14.8948 10.0248 14.7111L6.74253 13.1525C6.44733 13.001 5.94528 12.7335 5.58171 12.8574C4.70032 13.1573 5.4611 14.5515 5.67977 15.5498C6.11988 17.5576 7.32135 21.1467 8.16829 22.8621C8.63843 23.8139 8.80798 24.4135 10.0312 24.33C13.4316 24.0975 17.5995 22.8902 20.3923 21.3584C21.1386 20.9491 24.3773 18.9575 24.1287 17.8328C23.6152 15.5099 20.8752 9.54831 19.697 7.22814C18.7997 5.46128 18.2445 6.4939 17.8188 7.5869C17.488 8.43597 16.4189 11.49 16.5031 12.1129L16.3221 12.1529C16.0952 11.6786 15.6326 11.0755 15.3272 10.6654C14.8046 9.96416 12.3718 6.66494 11.8132 6.7884C10.9471 6.97985 11.1339 7.76421 11.1134 8.51886C11.0915 9.32052 11.0516 9.92809 11.0305 10.7209C10.985 12.4198 11.1266 13.7264 11.11 15.2039Z" fill="#FBB601"/>
<path fill-rule="evenodd" clip-rule="evenodd" d="M18.3493 5.43856C18.7972 5.33956 18.9553 5.05632 18.8198 4.59392L17.9467 2.29131C17.6893 1.56878 17.5226 1.44356 17.0163 1.55549C16.2253 1.73034 17.2475 3.69453 17.6267 4.74307C17.7519 5.08944 17.9704 5.52232 18.3493 5.43856Z" fill="#FBB601"/>
<path fill-rule="evenodd" clip-rule="evenodd" d="M1.28047 10.2557C1.40738 10.8299 1.76995 10.8802 2.6967 11.3263C3.14923 11.5441 4.04689 12.1127 4.33527 12.049C4.8791 11.9287 5.25686 11.2709 4.2072 10.7871C3.63516 10.5233 2.08467 9.60322 1.72354 9.68304C1.49274 9.73406 1.22369 9.99883 1.28047 10.2557Z" fill="#FBB601"/>
<path fill-rule="evenodd" clip-rule="evenodd" d="M10.7575 5.88242C11.7068 5.67259 11.3652 5.17497 10.9658 3.84954C10.7506 3.13582 10.5175 2.1375 9.86658 2.28139C9.08531 2.45409 9.59884 3.44485 9.80025 4.09177C9.97137 4.641 10.2094 6.00358 10.7575 5.88242Z" fill="#FBB601"/>
</svg>
