<svg width="18" height="19" viewBox="0 0 18 19" fill="none" xmlns="http://www.w3.org/2000/svg">
<path fill-rule="evenodd" clip-rule="evenodd" d="M10.35 0.3375L17.1 3.6675C17.64 3.9375 18 4.4775 18 5.1075V7.1775C18 8.0775 17.28 8.7975 16.38 8.7975H1.62C0.72 8.7975 0 8.0775 0 7.1775V5.1075C0 4.5675 0.36 3.9375 0.9 3.6675L7.65 0.3375C8.46 -0.1125 9.45 -0.1125 10.35 0.3375ZM1.8 6.9975H16.2V5.2875L9.63 1.9575C9.27 1.7775 8.82 1.7775 8.46 1.9575L1.8 5.1975V6.9975ZM15.57 16.2674H17.1C17.64 16.2674 18 16.6274 18 17.1674C18 17.7074 17.64 18.0674 17.1 18.0674H0.9C0.36 18.0674 0 17.7074 0 17.1674C0 16.6274 0.36 16.2674 0.9 16.2674H2.43V11.0474C2.43 10.5074 2.79 10.1474 3.33 10.1474C3.87 10.1474 4.23 10.5074 4.23 11.0474V16.2674H6.21V11.0474C6.21 10.5074 6.57 10.1474 7.11 10.1474C7.65 10.1474 8.01 10.5074 8.01 11.0474V16.2674H9.99V11.0474C9.99 10.5074 10.35 10.1474 10.89 10.1474C11.43 10.1474 11.79 10.5074 11.79 11.0474V16.2674H13.77V11.0474C13.77 10.5074 14.13 10.1474 14.67 10.1474C15.21 10.1474 15.57 10.5074 15.57 11.0474V16.2674Z" fill="#AAB2BD"/>
</svg>
