<svg width="10" height="16" viewBox="0 0 10 16" fill="none" xmlns="http://www.w3.org/2000/svg">
<path d="M0.974609 8.18091C0.974609 7.97339 1.04932 7.78247 1.20703 7.63306L7.78955 1.19165C7.93066 1.05054 8.11328 0.97583 8.3291 0.97583C8.76074 0.97583 9.09277 1.29956 9.09277 1.7312C9.09277 1.93872 9.00146 2.12964 8.86865 2.27075L2.82568 8.18091L8.86865 14.0911C9.00146 14.2322 9.09277 14.4148 9.09277 14.6306C9.09277 15.0623 8.76074 15.386 8.3291 15.386C8.11328 15.386 7.93066 15.3113 7.78955 15.1619L1.20703 8.72876C1.04932 8.57104 0.974609 8.38843 0.974609 8.18091Z" fill="#F5F7FA"/>
</svg>
