<svg width="20" height="22" viewBox="0 0 20 22" fill="none" xmlns="http://www.w3.org/2000/svg">
<path d="M17.0652 3.63H14.2391C12.9348 3.63 11.6304 3.08 10.7609 2.2C9.4565 0.77 7.71739 0 5.76087 0H2.82609C1.30435 0 0 1.32 0 2.86V3.74V12.54V20.9C0 21.56 0.43478 22 1.08696 22C1.73913 22 2.17391 21.56 2.17391 20.9V12.65V3.85V2.86C2.17391 2.53 2.5 2.2 2.82609 2.2H5.76087C7.06522 2.2 8.3696 2.75 9.2391 3.63C10.5435 4.95 12.3913 5.72 14.2391 5.72H17.0652C17.5 5.72 17.7174 6.05 17.7174 6.38V14.3C17.7174 14.74 17.3913 14.96 17.0652 14.96H14.2391C12.9348 14.96 11.6304 14.41 10.7609 13.53C9.4565 12.21 7.6087 11.44 5.76087 11.44H4.67391C4.02174 11.44 3.58696 11.88 3.58696 12.54C3.58696 13.2 4.02174 13.64 4.67391 13.64H5.86957C7.17391 13.64 8.4783 14.19 9.3478 15.07C10.6522 16.39 12.5 17.16 14.3478 17.16H17.1739C18.8043 17.16 20 15.84 20 14.3V6.49C20 4.95 18.6957 3.63 17.0652 3.63Z" fill="#AAB2BD"/>
</svg>
