1<svg width="9" height="16" viewBox="0 0 9 16" fill="none" xmlns="http://www.w3.org/2000/svg">
<path d="M8.9375 7.99316C8.9375 8.20068 8.86279 8.3916 8.70508 8.54102L2.12256 14.9824C1.98145 15.1235 1.79883 15.1982 1.58301 15.1982C1.15137 15.1982 0.819336 14.8745 0.819336 14.4429C0.819336 14.2354 0.910645 14.0444 1.04346 13.9033L7.08643 7.99316L1.04346 2.08301C0.910646 1.94189 0.819337 1.75928 0.819337 1.54346C0.819338 1.11182 1.15137 0.788085 1.58301 0.788085C1.79883 0.788085 1.98145 0.862792 2.12256 1.01221L8.70508 7.44531C8.86279 7.60303 8.9375 7.78564 8.9375 7.99316Z" fill="white"/>
</svg>
