<svg width="32" height="31" viewBox="0 0 32 31" fill="none" xmlns="http://www.w3.org/2000/svg">
<path d="M10.8499 9.14168L14.4652 1.93257C14.8742 1.10075 15.8721 0.758234 16.7064 1.1823C17.0336 1.3454 17.2953 1.62268 17.4589 1.94888L20.8616 8.89703C21.1397 9.45158 21.6795 9.84302 22.3012 9.92457L29.4337 10.7727C30.3989 10.9032 31.1023 11.7839 30.9878 12.7625C30.9387 13.154 30.7588 13.5291 30.4643 13.8227L24.8205 19.4008C24.5914 19.6128 24.4933 19.939 24.526 20.2652L25.4585 27.7843C25.6057 28.8607 24.8368 29.8556 23.7735 29.9861C23.3645 30.0351 22.9555 29.9535 22.5956 29.7578L16.641 26.4957C16.2157 26.2674 15.6922 26.2511 15.2505 26.4794L9.08316 29.6599C8.21613 30.1003 7.1528 29.7578 6.71111 28.877C6.53116 28.5508 6.48208 28.1757 6.53116 27.8169L7.02193 24.3591C7.26731 22.6628 8.31429 21.2112 9.81931 20.4283L16.6737 16.9217C16.8537 16.8238 16.9191 16.5954 16.8373 16.416C16.7555 16.2692 16.6083 16.1877 16.4447 16.2203L8.0689 17.4273C6.7929 17.6067 5.48419 17.2479 4.48629 16.416L1.68891 14.1326C0.887326 13.4802 0.772813 12.3059 1.41081 11.4904C1.72163 11.1315 2.14696 10.8869 2.62137 10.8216L9.78659 9.89195C10.2446 9.84302 10.6373 9.54944 10.8499 9.14168V9.14168Z" fill="url(#paint0_linear_2050_5)"/>
<g filter="url(#filter0_i_2050_5)">
<path d="M10.8499 9.14168L14.4652 1.93257C14.8742 1.10075 15.8721 0.758234 16.7064 1.1823C17.0336 1.3454 17.2953 1.62268 17.4589 1.94888L20.8616 8.89703C21.1397 9.45158 21.6795 9.84302 22.3012 9.92457L29.4337 10.7727C30.3989 10.9032 31.1023 11.7839 30.9878 12.7625C30.9387 13.154 30.7588 13.5291 30.4643 13.8227L24.8205 19.4008C24.5914 19.6128 24.4933 19.939 24.526 20.2652L25.4585 27.7843C25.6057 28.8607 24.8368 29.8556 23.7735 29.9861C23.3645 30.0351 22.9555 29.9535 22.5956 29.7578L16.641 26.4957C16.2157 26.2674 15.6922 26.2511 15.2505 26.4794L9.08316 29.6599C8.21613 30.1003 7.1528 29.7578 6.71111 28.877C6.53116 28.5508 6.48208 28.1757 6.53116 27.8169L7.02193 24.3591C7.26731 22.6628 8.31429 21.2112 9.81931 20.4283L16.6737 16.9217C16.8537 16.8238 16.9191 16.5954 16.8373 16.416C16.7555 16.2692 16.6083 16.1877 16.4447 16.2203L8.0689 17.4273C6.7929 17.6067 5.48419 17.2479 4.48629 16.416L1.68891 14.1326C0.887326 13.4802 0.772813 12.3059 1.41081 11.4904C1.72163 11.1315 2.14696 10.8869 2.62137 10.8216L9.78659 9.89195C10.2446 9.84302 10.6373 9.54944 10.8499 9.14168V9.14168Z" fill="#FFBE31"/>
</g>
<path d="M10.8499 9.14168L14.4652 1.93257C14.8742 1.10075 15.8721 0.758234 16.7064 1.1823C17.0336 1.3454 17.2953 1.62268 17.4589 1.94888L20.8616 8.89703C21.1397 9.45158 21.6795 9.84302 22.3012 9.92457L29.4337 10.7727C30.3989 10.9032 31.1023 11.7839 30.9878 12.7625C30.9387 13.154 30.7588 13.5291 30.4643 13.8227L24.8205 19.4008C24.5914 19.6128 24.4933 19.939 24.526 20.2652L25.4585 27.7843C25.6057 28.8607 24.8368 29.8556 23.7735 29.9861C23.3645 30.0351 22.9555 29.9535 22.5956 29.7578L16.641 26.4957C16.2157 26.2674 15.6922 26.2511 15.2505 26.4794L9.08316 29.6599C8.21613 30.1003 7.1528 29.7578 6.71111 28.877C6.53116 28.5508 6.48208 28.1757 6.53116 27.8169L7.02193 24.3591C7.26731 22.6628 8.31429 21.2112 9.81931 20.4283L16.6737 16.9217C16.8537 16.8238 16.9191 16.5954 16.8373 16.416C16.7555 16.2692 16.6083 16.1877 16.4447 16.2203L8.0689 17.4273C6.7929 17.6067 5.48419 17.2479 4.48629 16.416L1.68891 14.1326C0.887326 13.4802 0.772813 12.3059 1.41081 11.4904C1.72163 11.1315 2.14696 10.8869 2.62137 10.8216L9.78659 9.89195C10.2446 9.84302 10.6373 9.54944 10.8499 9.14168V9.14168Z" stroke="url(#paint1_linear_2050_5)" stroke-width="0.89"/>
<defs>
<filter id="filter0_i_2050_5" x="1" y="1" width="31" height="30" filterUnits="userSpaceOnUse" color-interpolation-filters="sRGB">
<feFlood flood-opacity="0" result="BackgroundImageFix"/>
<feBlend mode="normal" in="SourceGraphic" in2="BackgroundImageFix" result="shape"/>
<feColorMatrix in="SourceAlpha" type="matrix" values="0 0 0 0 0 0 0 0 0 0 0 0 0 0 0 0 0 0 127 0" result="hardAlpha"/>
<feOffset dx="1" dy="1"/>
<feGaussianBlur stdDeviation="2"/>
<feComposite in2="hardAlpha" operator="arithmetic" k2="-1" k3="1"/>
<feColorMatrix type="matrix" values="0 0 0 0 1 0 0 0 0 1 0 0 0 0 1 0 0 0 0.657 0"/>
<feBlend mode="normal" in2="shape" result="effect1_innerShadow_2050_5"/>
</filter>
<linearGradient id="paint0_linear_2050_5" x1="751" y1="24.925" x2="2167.01" y2="3165.73" gradientUnits="userSpaceOnUse">
<stop stop-color="#FFD951"/>
<stop offset="1" stop-color="#FFB222"/>
</linearGradient>
<linearGradient id="paint1_linear_2050_5" x1="1501" y1="1" x2="1501" y2="2895.2" gradientUnits="userSpaceOnUse">
<stop stop-color="#E58F0D"/>
<stop offset="0.9996" stop-color="#EB7915"/>
</linearGradient>
</defs>
</svg>
