<svg width="28" height="28" viewBox="0 0 28 28" fill="none" xmlns="http://www.w3.org/2000/svg">
<path d="M21.3702 15.6056L13.6209 13.7633L11.7802 6.01565C11.694 5.65226 11.3684 5.39551 10.9951 5.39551C10.6203 5.39551 10.2963 5.65226 10.2101 6.01565L8.36776 13.7633L0.618496 15.6056C0.256748 15.6918 0 16.0158 0 16.3907C0 16.7639 0.256748 17.0895 0.618496 17.174L8.36776 19.018L10.2101 26.7607C10.2963 27.1274 10.6203 27.3858 10.9951 27.3858C11.3684 27.3858 11.694 27.1282 11.7802 26.7607L13.6209 19.018L21.3702 17.174C21.7319 17.0887 21.9887 16.7639 21.9887 16.3907C21.9887 16.0158 21.7319 15.6926 21.3702 15.6056Z" fill="#FBB601"/>
<path d="M27.6429 4.50666L24.2223 3.69294L23.4119 0.273976C23.3717 0.11402 23.229 0 23.0641 0C22.9008 0 22.7565 0.11402 22.7179 0.273976L21.9058 3.69294L18.4869 4.50666C18.3269 4.54358 18.2129 4.68795 18.2129 4.85282C18.2129 5.0177 18.3269 5.16207 18.4869 5.19899L21.9058 6.01107L22.7179 9.43004C22.7565 9.59163 22.9008 9.70565 23.0641 9.70565C23.229 9.70565 23.3717 9.59163 23.4119 9.43004L24.2223 6.01107L27.6429 5.19899C27.8029 5.16207 27.9169 5.0177 27.9169 4.85282C27.9169 4.68795 27.8029 4.54358 27.6429 4.50666Z" fill="#FBB601"/>
</svg>
