<svg width="53" height="51" viewBox="0 0 53 51" fill="none" xmlns="http://www.w3.org/2000/svg">
<path d="M17.7449 14.8822L23.8909 2.5901C24.5862 1.17178 26.2826 0.58777 27.7009 1.31084C28.2571 1.58894 28.7021 2.06171 28.9802 2.61791L34.7647 14.4651C35.2375 15.4106 36.1552 16.0781 37.212 16.2171L49.3373 17.6632C50.9781 17.8857 52.1739 19.3875 51.9792 21.0561C51.8958 21.7235 51.5899 22.3632 51.0893 22.8637L41.4948 32.3748C41.1054 32.7364 40.9386 33.2926 40.9942 33.8488L42.5794 46.6693C42.8297 48.5047 41.5226 50.2012 39.7149 50.4237C39.0197 50.5071 38.3244 50.368 37.7126 50.0343L27.5897 44.4723C26.8666 44.0829 25.9767 44.0551 25.2258 44.4445L14.7414 49.8674C13.2674 50.6183 11.4598 50.0343 10.7089 48.5326C10.403 47.9764 10.3195 47.3367 10.403 46.7249L11.2373 40.8291C11.6544 37.9369 13.4343 35.4618 15.9928 34.1269L27.6453 28.1477C27.9512 27.9808 28.0625 27.5915 27.9234 27.2856C27.7843 27.0353 27.5341 26.8962 27.256 26.9518L13.0171 29.0098C10.8479 29.3157 8.62312 28.7039 6.9267 27.2856L2.17115 23.3921C0.808454 22.2797 0.613782 20.2774 1.69838 18.8869C2.22677 18.2751 2.94984 17.8579 3.75634 17.7467L15.9372 16.1615C16.7159 16.0781 17.3833 15.5775 17.7449 14.8822Z" fill="url(#paint0_linear_71_140)"/>
<g filter="url(#filter0_i_71_140)">
<path d="M17.7449 14.8822L23.8909 2.5901C24.5862 1.17178 26.2826 0.58777 27.7009 1.31084C28.2571 1.58894 28.7021 2.06171 28.9802 2.61791L34.7647 14.4651C35.2375 15.4106 36.1552 16.0781 37.212 16.2171L49.3373 17.6632C50.9781 17.8857 52.1739 19.3875 51.9792 21.0561C51.8958 21.7235 51.5899 22.3632 51.0893 22.8637L41.4948 32.3748C41.1054 32.7364 40.9386 33.2926 40.9942 33.8488L42.5794 46.6693C42.8297 48.5047 41.5226 50.2012 39.7149 50.4237C39.0197 50.5071 38.3244 50.368 37.7126 50.0343L27.5897 44.4723C26.8666 44.0829 25.9767 44.0551 25.2258 44.4445L14.7414 49.8674C13.2674 50.6183 11.4598 50.0343 10.7089 48.5326C10.403 47.9764 10.3195 47.3367 10.403 46.7249L11.2373 40.8291C11.6544 37.9369 13.4343 35.4618 15.9928 34.1269L27.6453 28.1477C27.9512 27.9808 28.0625 27.5915 27.9234 27.2856C27.7843 27.0353 27.5341 26.8962 27.256 26.9518L13.0171 29.0098C10.8479 29.3157 8.62312 28.7039 6.9267 27.2856L2.17115 23.3921C0.808454 22.2797 0.613782 20.2774 1.69838 18.8869C2.22677 18.2751 2.94984 17.8579 3.75634 17.7467L15.9372 16.1615C16.7159 16.0781 17.3833 15.5775 17.7449 14.8822Z" fill="#FFBE31"/>
</g>
<path d="M17.7449 14.8822L23.8909 2.5901C24.5862 1.17178 26.2826 0.58777 27.7009 1.31084C28.2571 1.58894 28.7021 2.06171 28.9802 2.61791L34.7647 14.4651C35.2375 15.4106 36.1552 16.0781 37.212 16.2171L49.3373 17.6632C50.9781 17.8857 52.1739 19.3875 51.9792 21.0561C51.8958 21.7235 51.5899 22.3632 51.0893 22.8637L41.4948 32.3748C41.1054 32.7364 40.9386 33.2926 40.9942 33.8488L42.5794 46.6693C42.8297 48.5047 41.5226 50.2012 39.7149 50.4237C39.0197 50.5071 38.3244 50.368 37.7126 50.0343L27.5897 44.4723C26.8666 44.0829 25.9767 44.0551 25.2258 44.4445L14.7414 49.8674C13.2674 50.6183 11.4598 50.0343 10.7089 48.5326C10.403 47.9764 10.3195 47.3367 10.403 46.7249L11.2373 40.8291C11.6544 37.9369 13.4343 35.4618 15.9928 34.1269L27.6453 28.1477C27.9512 27.9808 28.0625 27.5915 27.9234 27.2856C27.7843 27.0353 27.5341 26.8962 27.256 26.9518L13.0171 29.0098C10.8479 29.3157 8.62312 28.7039 6.9267 27.2856L2.17115 23.3921C0.808454 22.2797 0.613782 20.2774 1.69838 18.8869C2.22677 18.2751 2.94984 17.8579 3.75634 17.7467L15.9372 16.1615C16.7159 16.0781 17.3833 15.5775 17.7449 14.8822V14.8822Z" stroke="url(#paint1_linear_71_140)" stroke-width="0.89"/>
<defs>
<filter id="filter0_i_71_140" x="1" y="1" width="52" height="50.4473" filterUnits="userSpaceOnUse" color-interpolation-filters="sRGB">
<feFlood flood-opacity="0" result="BackgroundImageFix"/>
<feBlend mode="normal" in="SourceGraphic" in2="BackgroundImageFix" result="shape"/>
<feColorMatrix in="SourceAlpha" type="matrix" values="0 0 0 0 0 0 0 0 0 0 0 0 0 0 0 0 0 0 127 0" result="hardAlpha"/>
<feOffset dx="1" dy="1"/>
<feGaussianBlur stdDeviation="2"/>
<feComposite in2="hardAlpha" operator="arithmetic" k2="-1" k3="1"/>
<feColorMatrix type="matrix" values="0 0 0 0 1 0 0 0 0 1 0 0 0 0 1 0 0 0 0.657 0"/>
<feBlend mode="normal" in2="shape" result="effect1_innerShadow_71_140"/>
</filter>
<linearGradient id="paint0_linear_71_140" x1="1276" y1="41.7941" x2="3695.17" y2="5391.7" gradientUnits="userSpaceOnUse">
<stop stop-color="#FFD951"/>
<stop offset="1" stop-color="#FFB222"/>
</linearGradient>
<linearGradient id="paint1_linear_71_140" x1="2551" y1="1" x2="2551" y2="4935.84" gradientUnits="userSpaceOnUse">
<stop stop-color="#E58F0D"/>
<stop offset="0.9996" stop-color="#EB7915"/>
</linearGradient>
</defs>
</svg>
