<svg width="23" height="18" viewBox="0 0 23 18" fill="none" xmlns="http://www.w3.org/2000/svg">
<path fill-rule="evenodd" clip-rule="evenodd" d="M18.1967 8.9999C19.7967 9.7999 21.1967 11.1999 21.8967 13.0999C22.2967 13.9999 22.1967 14.9999 21.5967 15.7999C21.0967 16.4999 20.1967 16.9999 19.2967 16.9999H10.9967C10.0967 16.9999 9.19668 16.5999 8.69665 15.7999C8.19665 14.9999 7.99665 13.9999 8.49665 13.0999C9.19668 11.1999 10.5967 9.7999 12.1967 8.9999C11.2967 8.0999 10.7967 6.8999 10.7967 5.5999C10.7967 2.9999 12.7967 0.899902 15.1967 0.899902C17.5967 0.899902 19.5967 2.9999 19.5967 5.5999C19.5967 6.9999 19.0967 8.1999 18.1967 8.9999ZM15.0967 2.9999C13.7967 2.9999 12.6967 4.1999 12.6967 5.6999C12.6967 7.0999 13.7967 8.3999 15.0967 8.3999C16.3967 8.3999 17.4967 7.1999 17.4967 5.6999C17.4967 4.1999 16.3967 2.9999 15.0967 2.9999ZM19.8367 14.7662C19.8596 14.7399 19.8796 14.717 19.8967 14.6999C19.9967 14.5999 20.1967 14.1999 20.0967 13.7999C19.2967 11.6999 17.2967 10.2999 15.1967 10.2999C13.0967 10.2999 11.0967 11.6999 10.2967 13.7999C10.0967 14.1999 10.2967 14.5999 10.3967 14.6999C10.3967 14.7999 10.5967 15.0999 10.9967 15.0999H19.2967C19.5454 15.0999 19.7254 14.8936 19.8367 14.7662ZM2.49657 15.0997H5.79657C6.39657 15.0997 6.79657 15.4997 6.79657 16.0997C6.79657 16.6997 6.39657 17.0997 5.79657 17.0997H2.49657C1.69657 17.0997 0.996573 16.6997 0.496573 15.9997C-0.00342444 15.2997 -0.103424 14.3997 0.0965726 13.6997C0.696573 12.1997 1.69657 11.0997 2.99657 10.3997C2.39657 9.6997 1.99657 8.6997 1.99657 7.6997C1.99657 5.49971 3.69657 3.69971 5.79657 3.69971C7.89657 3.69971 9.59658 5.69971 9.59658 7.7997C9.59658 9.8997 7.89657 11.6997 5.79657 11.6997C4.09657 11.6997 2.59657 12.6997 1.99657 14.3997C1.89657 14.5997 1.99657 14.7997 2.09657 14.8997C2.19657 14.9997 2.29657 15.0997 2.49657 15.0997ZM5.79657 5.79971C4.79657 5.79971 3.99657 6.59971 3.99657 7.6997C3.99657 8.6997 4.79657 9.5997 5.79657 9.5997C6.79657 9.5997 7.59657 8.7997 7.59657 7.6997C7.59657 6.69971 6.79657 5.79971 5.79657 5.79971Z" fill="#434A53"/>
</svg>
