<svg width="18" height="19" viewBox="0 0 18 19" fill="none" xmlns="http://www.w3.org/2000/svg">
<path fill-rule="evenodd" clip-rule="evenodd" d="M3.17965 16.6857H8.29947C8.74857 16.6857 9.10785 17.0449 9.10785 17.5839C9.10785 18.1228 8.74857 18.4821 8.20965 18.4821H3.08983C2.01198 18.4821 1.11378 17.9432 0.485032 17.0449C-0.0538925 16.2366 -0.143713 15.1587 0.21557 14.2605C1.11378 12.1048 2.91019 10.3982 4.97607 9.58983C3.8084 8.69163 3.08983 7.25449 3.08983 5.63772C3.08983 2.85328 5.42517 0.517944 8.20965 0.517944C11.0839 0.517944 13.4192 2.76346 13.4192 5.5479C13.4192 8.33234 11.0839 10.6677 8.29947 10.6677C5.51499 10.6677 3.08983 12.3743 2.01198 14.8893C1.83234 15.3384 1.83234 15.6976 2.1018 16.0569C2.28145 16.4162 2.73055 16.6857 3.17965 16.6857ZM8.20965 2.31436C6.4132 2.31436 4.88624 3.84131 4.88624 5.63772C4.88624 7.43414 6.4132 8.96109 8.20965 8.96109C10.0061 8.96109 11.533 7.43414 11.533 5.63772C11.533 3.84131 10.0061 2.31436 8.20965 2.31436ZM14.7665 13.3625H17.1018C17.6407 13.3625 18 13.7218 18 14.2607C18 14.7996 17.6407 15.1589 17.1018 15.1589H14.7665V17.4942C14.7665 18.0331 14.4072 18.3924 13.8683 18.3924C13.3294 18.3924 12.9701 18.0331 12.9701 17.4942V15.1589H10.6347C10.0958 15.1589 9.73653 14.7996 9.73653 14.2607C9.73653 13.7218 10.0958 13.3625 10.6347 13.3625H12.9701V11.0271C12.9701 10.4882 13.3294 10.1289 13.8683 10.1289C14.4072 10.1289 14.7665 10.4882 14.7665 11.0271V13.3625Z" fill="white"/>
</svg>
