<svg width="54" height="54" viewBox="0 0 54 54" fill="none" xmlns="http://www.w3.org/2000/svg">
<path fill-rule="evenodd" clip-rule="evenodd" d="M0 27C0 41.85 12.15 54 27 54C41.85 54 54 41.85 54 27C54 12.15 41.85 0 27 0C12.15 0 0 12.15 0 27ZM5.4 27C5.4 15.12 15.12 5.4 27 5.4C38.88 5.4 48.6 15.12 48.6 27C48.6 38.88 38.88 48.6 27 48.6C15.12 48.6 5.4 38.88 5.4 27ZM26.9996 29.7004H40.2296C41.8496 29.7004 42.9296 28.6204 42.9296 27.0004C42.9296 25.3804 41.8496 24.3004 40.2296 24.3004H29.6996V13.7704C29.6996 12.1504 28.6196 11.0704 26.9996 11.0704C25.3796 11.0704 24.2996 12.1504 24.2996 13.7704V27.0004C24.2996 28.6204 25.3796 29.7004 26.9996 29.7004Z" fill="#0A3161"/>
</svg>
