<svg width="10" height="12" viewBox="0 0 10 12" fill="none" xmlns="http://www.w3.org/2000/svg">
<path d="M4.88867 11.3535C4.45508 11.3535 4.16211 11.0547 4.16211 10.6094V3.66602L4.20898 2.39453L2.82031 3.96484L1.50195 5.27734C1.36719 5.40625 1.19141 5.49414 0.980469 5.49414C0.582031 5.49414 0.283203 5.20117 0.283203 4.79102C0.283203 4.59766 0.359375 4.41602 0.511719 4.26367L4.34961 0.419922C4.49023 0.273438 4.68945 0.191406 4.88867 0.191406C5.08789 0.191406 5.29297 0.273438 5.43359 0.419922L9.27148 4.26367C9.42383 4.41602 9.5 4.59766 9.5 4.79102C9.5 5.20117 9.20117 5.49414 8.80273 5.49414C8.5918 5.49414 8.41602 5.40625 8.28125 5.27734L6.95703 3.96484L5.56836 2.39453L5.62109 3.66602V10.6094C5.62109 11.0547 5.32227 11.3535 4.88867 11.3535Z" fill="#009748"/>
</svg>
