<svg width="8" height="15" viewBox="0 0 8 15" fill="none" xmlns="http://www.w3.org/2000/svg">
<path d="M8 7.64062C8 7.83594 7.92969 8.01562 7.78125 8.15625L1.58594 14.2187C1.45313 14.3516 1.28125 14.4219 1.07813 14.4219C0.671875 14.4219 0.359375 14.1172 0.359375 13.7109C0.359375 13.5156 0.445313 13.3359 0.570313 13.2031L6.25781 7.64062L0.570314 2.07812C0.445314 1.94531 0.359377 1.77344 0.359377 1.57031C0.359377 1.16406 0.671877 0.859375 1.07813 0.859375C1.28125 0.859375 1.45313 0.929688 1.58594 1.07031L7.78125 7.125C7.92969 7.27344 8 7.44531 8 7.64062Z" fill="white"/>
</svg>
