<svg width="19" height="19" viewBox="0 0 19 19" fill="none" xmlns="http://www.w3.org/2000/svg">
<path d="M1 18.4H3.5C4.8 18.4 6 17.9 6.9 17L17.1999 6.7C18.6999 5.2 18.6999 2.7 17.1999 1.2C16.4999 0.4 15.4999 0 14.4999 0C13.4999 0 12.5 0.4 11.7 1.1L1.4 11.5C0.5 12.4 0 13.7 0 15V17.5C0 18 0.5 18.4 1 18.4ZM2 14.9C2 14.1 2.3 13.4 2.8 12.9L11 4.7L12.4 6C12.5999 6.2 12.9 6.3 13.0999 6.3C13.4 6.3 13.6 6.2 13.8 6C14.2 5.6 14.2 5 13.8 4.6L12.4 3.2L13.0999 2.5C13.4999 2.2 13.9999 2 14.4999 2C14.9999 2 15.5 2.2 15.8 2.6C16.5 3.3 16.5 4.6 15.8 5.3L5.5 15.6C5 16.1 4.2 16.4 3.5 16.4H2V14.9Z" fill="white"/>
</svg>
