<svg width="20" height="16" viewBox="0 0 20 16" xmlns="http://www.w3.org/2000/svg">
<path d="M17 4.7H14.2C12.4 4.7 10.9 6.2 10.9 8V8.1C10.9 9.9 12.4 11.4 14.2 11.4H16V12C16 13.2 15.1 14.1 14.1 14.1H3.9C2.9 14 2 13.1 2 11.9V4.1C2 2.9 2.9 2 3.9 2H14.1C14.8 2 15.5 2.4 15.8 3.2C16 3.7 16.6 3.9 17.1 3.7C17.6 3.5 17.8 2.9 17.6 2.4C17 0.9 15.6 0 14.1 0H3.9C1.8 0 0 1.8 0 4.1V11.9C0 14.2 1.8 16 3.9 16H14.1C16.3 16 18 14.2 18 11.9V11.1C18.9 10.7 19.5 9.8 19.5 8.8V7.2C19.5 5.8 18.4 4.7 17 4.7ZM12.9 8.1V7.9C12.9 7.2 13.5 6.6 14.2 6.6H17C17.3 6.6 17.5 6.8 17.5 7.1V8.8C17.5 9.1 17.3 9.3 17 9.3H14.2C13.5 9.3 12.9 8.8 12.9 8.1Z" />
</svg>
